<svg width="105" height="104" viewBox="0 0 105 104" fill="none" xmlns="http://www.w3.org/2000/svg">
<path d="M0.5 16.25C0.5 7.27537 7.77537 0 16.75 0H88.25C97.2246 0 104.5 7.27537 104.5 16.25V87.75C104.5 96.7246 97.2246 104 88.25 104H16.75C7.77537 104 0.5 96.7246 0.5 87.75V16.25Z" fill="white"/>
<path d="M33.5928 19.5381C36.0061 19.5381 38.3208 20.4967 40.0273 22.2031L46.1035 28.2793C49.6573 31.8329 55.4189 31.8329 58.9727 28.2793L65.0488 22.2031C66.7554 20.4967 69.0701 19.5381 71.4834 19.5381H75.9385C80.964 19.5383 85.0379 23.6122 85.0381 28.6377V36.416L57.1387 64.4902C54.8763 66.7668 51.1916 66.7624 48.9346 64.4805L45.6035 61.1133C43.4916 58.9782 40.0679 58.9782 37.9561 61.1133L36.0664 63.0234C33.9545 65.1585 33.9545 68.6208 36.0664 70.7559L45.1611 79.9512L45.1641 79.9541L49.208 84.042C49.3872 84.2232 49.5769 84.3877 49.7734 84.5381H29.1377C24.1122 84.5379 20.0383 80.464 20.0381 75.4385V28.6377C20.0383 23.6122 24.1122 19.5383 29.1377 19.5381H33.5928ZM85.0381 75.4385C85.0379 80.464 80.964 84.5379 75.9385 84.5381H56.291C56.4873 84.3878 56.6764 84.223 56.8555 84.042L62.5693 78.2656C62.5756 78.2594 62.5817 78.2524 62.5879 78.2461L85.0381 55.6553V75.4385Z" fill="#222530"/>
</svg>
