<svg width="142" height="41" viewBox="0 0 142 41" fill="none" xmlns="http://www.w3.org/2000/svg">
<path fill-rule="evenodd" clip-rule="evenodd" d="M8.36465 0.0229492C9.84986 0.0229492 11.2742 0.612949 12.3245 1.66315L16.0635 5.40216C18.2504 7.58909 21.7961 7.58909 23.9831 5.40215L27.7221 1.66315C28.7723 0.612948 30.1966 0.0229492 31.6819 0.0229492H34.4232C37.516 0.0229492 40.0232 2.53015 40.0232 5.62295V10.4094L22.8545 27.6857C21.4622 29.0867 19.1949 29.0841 17.8059 27.6798L15.756 25.6074C14.4564 24.2935 12.3493 24.2935 11.0496 25.6074L9.88673 26.7831C8.58711 28.097 8.58711 30.2272 9.88672 31.5411L15.4839 37.1998L15.4856 37.2016L17.974 39.7174C18.0841 39.8286 18.2 39.9305 18.3207 40.0229H5.6232C2.5304 40.0229 0.0231934 37.5157 0.0231934 34.4229V5.62295C0.0231934 2.53016 2.5304 0.0229492 5.62319 0.0229492H8.36465ZM22.3337 40.0229H34.4232C37.516 40.0229 40.0232 37.5157 40.0232 34.4229V22.2492L26.2079 36.151L26.1964 36.1626L22.6804 39.7174C22.5703 39.8286 22.4544 39.9305 22.3337 40.0229Z" fill="#222530"/>
<path d="M134.991 16.1602C138.639 16.1602 141.135 18.8482 141.135 22.3282C141.135 25.8322 138.711 28.4722 134.991 28.4722C131.295 28.4722 128.895 25.8322 128.895 22.3282C128.895 18.8482 131.319 16.1602 134.991 16.1602ZM134.991 18.4402C132.735 18.4402 131.367 20.2402 131.367 22.3282C131.367 24.4402 132.735 26.1682 134.991 26.1682C137.271 26.1682 138.639 24.4402 138.639 22.3282C138.639 20.2402 137.151 18.4402 134.991 18.4402Z" fill="#0E121B"/>
<path d="M121.557 18.4641C119.469 18.4641 117.813 19.8801 117.813 22.3041C117.813 24.6801 119.469 26.1681 121.557 26.1681C123.621 26.1681 125.325 24.6321 125.325 22.3041C125.325 20.0241 123.621 18.4641 121.557 18.4641ZM125.493 11.4561H127.965V28.2321H125.637L125.493 26.3601C124.557 27.8721 122.973 28.4721 121.389 28.4721C117.957 28.4721 115.341 26.2161 115.341 22.3041C115.341 18.2721 117.909 16.1361 121.341 16.1361C122.781 16.1361 124.725 16.8561 125.493 18.2481V11.4561Z" fill="#0E121B"/>
<path d="M111.915 18.2722L111.987 16.4002H114.387C114.387 20.3362 114.387 24.2962 114.387 28.2322H112.035L111.915 26.3122C111.123 27.8242 109.299 28.5442 107.835 28.5442C104.379 28.5682 101.763 26.3362 101.763 22.3042C101.763 18.3442 104.475 16.1362 107.883 16.1362C109.563 16.1362 111.171 16.9282 111.915 18.2722ZM108.075 18.3922C105.963 18.3922 104.235 19.8802 104.235 22.3042C104.235 24.7522 105.963 26.2402 108.075 26.2402C113.187 26.2402 113.187 18.3922 108.075 18.3922Z" fill="#0E121B"/>
<path d="M92.5615 11.4561H95.0575V21.2481L99.4495 16.4001H102.45V16.5441L97.3375 21.9681L103.146 28.0641V28.2321H100.122L95.0575 22.7601V28.2321H92.5615V11.4561Z" fill="#0E121B"/>
<path d="M83.6711 16.4002H85.9751L86.1431 17.9602C87.0071 16.4482 88.3511 16.1362 89.6231 16.1362C90.7751 16.1362 91.8791 16.5442 92.5511 17.1442L91.4231 19.3042C90.8231 18.8242 90.2471 18.5842 89.3351 18.5842C87.6311 18.5842 86.1431 19.6402 86.1431 21.8242V28.2322H83.6711V16.4002Z" fill="#0E121B"/>
<path d="M79.5255 18.2722L79.5975 16.4002H81.9975C81.9975 20.3362 81.9975 24.2962 81.9975 28.2322H79.6455L79.5255 26.3122C78.7335 27.8242 76.9095 28.5442 75.4455 28.5442C71.9895 28.5682 69.3735 26.3362 69.3735 22.3042C69.3735 18.3442 72.0855 16.1362 75.4935 16.1362C77.1735 16.1362 78.7815 16.9282 79.5255 18.2722ZM75.6855 18.3922C73.5735 18.3922 71.8455 19.8802 71.8455 22.3042C71.8455 24.7522 73.5735 26.2402 75.6855 26.2402C80.7975 26.2402 80.7975 18.3922 75.6855 18.3922Z" fill="#0E121B"/>
<path d="M60.584 28.2321H58.088V21.7281C58.088 19.9761 57.08 18.5121 55.328 18.5121C53.576 18.5121 52.472 19.9761 52.472 21.7281V28.2321H50V16.3761H52.304L52.472 17.9601C53.144 16.6641 54.536 16.1841 55.784 16.1841C57.296 16.1841 58.832 16.8081 59.504 18.5601C60.464 16.8081 61.952 16.2081 63.56 16.2081C66.824 16.2081 68.576 18.2721 68.576 21.6801V28.2321H66.08V21.6801C66.08 19.9281 65.216 18.5361 63.464 18.5361C61.712 18.5361 60.584 19.9761 60.584 21.7281V28.2321Z" fill="#0E121B"/>
</svg>
