<svg width="75" height="76" viewBox="0 0 75 76" fill="none" xmlns="http://www.w3.org/2000/svg">
<path d="M37.5 0.5C19.7867 0.5 4.96587 12.7611 1.02389 29.2713C0.358362 32.087 0 35.0051 0 38C0 40.9949 0.358362 43.9386 1.02389 46.7287C4.96587 63.2389 19.7867 75.5 37.5 75.5C55.2133 75.5 75 58.7082 75 38C75 17.2918 58.2082 0.5 37.5 0.5ZM53.4215 48.5973L48.1229 53.8959L37.5256 43.2986L26.9283 53.8959L21.6297 48.5973L32.227 38L21.6297 27.4027L26.9283 22.1041L37.5256 32.7014L48.1229 22.1041L53.4215 27.4027L42.8242 38L53.4215 48.5973Z" fill="#F8DEDD"/>
<path d="M42.7992 38.0006L53.4221 48.5979L48.0979 53.8965L37.5006 43.2992L26.9033 53.8965L21.5791 48.5979L32.202 38.0006L21.5791 27.4033L26.9033 22.0791L37.5006 32.702L48.0979 22.0791L53.4221 27.4033L42.7992 38.0006Z" fill="#DE5354"/>
</svg>
