<svg width="966" height="456" viewBox="0 0 966 456" fill="none" xmlns="http://www.w3.org/2000/svg">
<path d="M1.00004 456L1 -2.43187e-05M69.8572 456L69.8571 -2.43187e-05M138.714 456L138.714 -2.43187e-05M207.571 456L207.571 -2.43187e-05M276.429 456L276.429 -2.43187e-05M345.286 456L345.286 -2.43187e-05M414.143 456L414.143 -2.43187e-05M483 456L483 -2.43187e-05M551.857 456V-2.43187e-05M620.714 456L620.714 -2.43187e-05M689.571 456V-2.43187e-05M758.428 456V-2.43187e-05M827.286 456V-2.43187e-05M896.143 456V-2.43187e-05M965 456V-2.43187e-05" stroke="url(#paint0_linear_1983_20751)" stroke-opacity="0.16"/>
<defs>
<linearGradient id="paint0_linear_1983_20751" x1="483" y1="456" x2="483" y2="0" gradientUnits="userSpaceOnUse">
<stop stop-color="#717784"/>
<stop offset="1" stop-color="#717784" stop-opacity="0"/>
</linearGradient>
</defs>
</svg>
